<svg xmlns="http://www.w3.org/2000/svg" xmlns:xlink="http://www.w3.org/1999/xlink" viewBox="0 0 32 32" fill="#FF9500">
  <path d="M16 5C12.144531 5 9 8.144531 9 12C9 14.410156 10.230469 16.550781 12.09375 17.8125C8.527344 19.34375 6 22.882813 6 27L8 27C8 24.46875 9.171875 22.214844 11 20.75L15.3125 24.71875L16 25.375L16.6875 24.71875L21 20.75C22.828125 22.214844 24 24.46875 24 27L26 27C26 22.882813 23.472656 19.34375 19.90625 17.8125C21.769531 16.550781 23 14.410156 23 12C23 8.144531 19.855469 5 16 5 Z M 16 7C18.773438 7 21 9.226563 21 12C21 14.773438 18.773438 17 16 17C13.226563 17 11 14.773438 11 12C11 9.226563 13.226563 7 16 7 Z M 16 19C17.144531 19 18.238281 19.226563 19.21875 19.65625L16 22.65625L12.78125 19.65625C13.761719 19.226563 14.855469 19 16 19Z" fill="#FF9500" />
</svg>