<?xml version="1.0" standalone="no"?><!DOCTYPE svg PUBLIC "-//W3C//DTD SVG 1.1//EN" "http://www.w3.org/Graphics/SVG/1.1/DTD/svg11.dtd"><svg t="1664207866985" class="icon" viewBox="0 0 1024 1024" version="1.1" xmlns="http://www.w3.org/2000/svg" p-id="1245" xmlns:xlink="http://www.w3.org/1999/xlink" width="200" height="200"><path d="M341.333333 192a42.666667 42.666667 0 0 1 42.666667 42.666667v149.333333h-149.333333a42.666667 42.666667 0 0 1-42.666667-42.666667v-106.666666a42.666667 42.666667 0 0 1 42.666667-42.666667h106.666666z m-106.666666-85.333333a128 128 0 0 0-128 128v106.666666a128 128 0 0 0 128 128h192a42.666667 42.666667 0 0 0 42.666666-42.666666v-192a128 128 0 0 0-128-128h-106.666666zM682.666667 192a42.666667 42.666667 0 0 0-42.666667 42.666667v149.333333h149.333333a42.666667 42.666667 0 0 0 42.666667-42.666667v-106.666666a42.666667 42.666667 0 0 0-42.666667-42.666667h-106.666666z m106.666666-85.333333a128 128 0 0 1 128 128v106.666666a128 128 0 0 1-128 128h-192a42.666667 42.666667 0 0 1-42.666666-42.666666v-192a128 128 0 0 1 128-128h106.666666zM341.333333 832a42.666667 42.666667 0 0 0 42.666667-42.666667v-149.333333h-149.333333a42.666667 42.666667 0 0 0-42.666667 42.666667v106.666666a42.666667 42.666667 0 0 0 42.666667 42.666667h106.666666z m-106.666666 85.333333a128 128 0 0 1-128-128v-106.666666a128 128 0 0 1 128-128h192a42.666667 42.666667 0 0 1 42.666666 42.666666v192a128 128 0 0 1-128 128h-106.666666zM682.666667 832a42.666667 42.666667 0 0 1-42.666667-42.666667v-149.333333h149.333333a42.666667 42.666667 0 0 1 42.666667 42.666667v106.666666a42.666667 42.666667 0 0 1-42.666667 42.666667h-106.666666z m106.666666 85.333333a128 128 0 0 0 128-128v-106.666666a128 128 0 0 0-128-128h-192a42.666667 42.666667 0 0 0-42.666666 42.666666v192a128 128 0 0 0 128 128h106.666666z" p-id="1246"></path></svg>