<?xml version="1.0" standalone="no"?><!DOCTYPE svg PUBLIC "-//W3C//DTD SVG 1.1//EN" "http://www.w3.org/Graphics/SVG/1.1/DTD/svg11.dtd"><svg t="1664207860285" class="icon" viewBox="0 0 1024 1024" version="1.1" xmlns="http://www.w3.org/2000/svg" p-id="1100" xmlns:xlink="http://www.w3.org/1999/xlink" width="200" height="200"><path d="M106.666667 170.666667a42.666667 42.666667 0 0 1 42.666666-42.666667h725.333334a42.666667 42.666667 0 1 1 0 85.333333H149.333333a42.666667 42.666667 0 0 1-42.666666-42.666666zM106.666667 512a42.666667 42.666667 0 0 1 42.666666-42.666667h725.333334a42.666667 42.666667 0 1 1 0 85.333334H149.333333a42.666667 42.666667 0 0 1-42.666666-42.666667zM106.666667 853.333333a42.666667 42.666667 0 0 1 42.666666-42.666666h725.333334a42.666667 42.666667 0 1 1 0 85.333333H149.333333a42.666667 42.666667 0 0 1-42.666666-42.666667z" p-id="1101"></path></svg>