<svg xmlns="http://www.w3.org/2000/svg" xmlns:xlink="http://www.w3.org/1999/xlink" viewBox="0 0 32 32" fill="#FF9500">
  <path d="M16 3C14.895 3 14 3.895 14 5C14 5.0878128 14.01443 5.1710428 14.025391 5.2558594C10.571386 6.1399261 8 9.2752191 8 13L8 22C8 22.56503 7.5650302 23 7 23L6 23L6 25L7 25L13.416016 25C13.278986 25.342014 13 25.611652 13 26C13 27.64497 14.35503 29 16 29C17.64497 29 19 27.64497 19 26C19 25.611652 18.721014 25.342014 18.583984 25L25 25L26 25L26 23L25 23C24.43497 23 24 22.56503 24 22L24 13.292969C24 9.5377667 21.490315 6.1883288 17.972656 5.2597656C17.983962 5.1736557 18 5.0892077 18 5C18 3.895 17.105 3 16 3 z M 16.185547 7.0019531C19.452305 7.0999901 22 9.9735784 22 13.292969L22 22C22 22.388348 22.278986 22.657986 22.416016 23L16 23L9.5839844 23C9.7210143 22.657986 10 22.388348 10 22L10 13C10 9.612364 12.771694 6.8994686 16.185547 7.0019531 z M 4.1894531 8.5839844C2.6202113 12.016159 2.6184477 15.982209 4.1933594 19.416016L6.0117188 18.583984C4.6806305 15.681791 4.6810543 12.317841 6.0078125 9.4160156L4.1894531 8.5839844 z M 27.810547 8.5839844L25.992188 9.4160156C27.318946 12.317841 27.319363 15.681791 25.988281 18.583984L27.806641 19.416016C29.381552 15.982209 29.379796 12.016159 27.810547 8.5839844 z M 16 25C16.56503 25 17 25.43497 17 26C17 26.56503 16.56503 27 16 27C15.43497 27 15 26.56503 15 26C15 25.43497 15.43497 25 16 25 z" fill="#FF9500" />
</svg>