<svg xmlns="http://www.w3.org/2000/svg" xmlns:xlink="http://www.w3.org/1999/xlink" viewBox="0 0 32 32" fill="#FF9500">
  <path d="M5.25 2.75L4.6875 3.28125L3.28125 4.6875L2.75 5.25L3.15625 5.90625L5.25 9.40625L5.53125 9.90625L8.46875 9.90625L12.46875 13.875C8.894531 17.464844 4.347656 22.027344 4.1875 22.1875C2.621094 23.753906 2.617188 26.320313 4.21875 27.8125C5.78125 29.355469 8.328125 29.394531 9.8125 27.8125C9.824219 27.800781 9.832031 27.792969 9.84375 27.78125L16 21.59375L22.1875 27.8125L22.28125 27.875C23.851563 29.355469 26.347656 29.375 27.8125 27.8125L27.8125 27.78125L27.84375 27.78125C29.375 26.214844 29.390625 23.667969 27.8125 22.1875L27.78125 22.15625L22.5625 16.96875C26.074219 16.640625 28.824219 13.675781 28.875 10.09375L28.90625 10.09375C28.910156 10.074219 28.90625 10.050781 28.90625 10.03125C28.90625 10.019531 28.90625 10.011719 28.90625 10C29.003906 8.84375 28.753906 7.738281 28.15625 6.78125L27.46875 5.71875L22.8125 10.375L21.40625 8.90625L26.15625 4.15625L24.78125 3.59375C23.976563 3.25 23.046875 3 22 3C18.15625 3 15 6.15625 15 10C15 10.417969 15.089844 10.78125 15.15625 11.15625C14.71875 11.59375 14.390625 11.953125 13.875 12.46875L9.90625 8.5L9.90625 5.53125L9.40625 5.25L5.90625 3.15625 Z M 22 5C22.140625 5 22.238281 5.082031 22.375 5.09375L18.59375 8.875L19.28125 9.59375L22.09375 12.5L22.78125 13.21875L26.75 9.25C26.769531 9.480469 26.933594 9.648438 26.90625 9.90625L26.90625 10C26.90625 12.753906 24.660156 15 21.90625 15C21.539063 15 21.09375 14.914063 20.59375 14.8125L20.0625 14.71875L19.6875 15.09375L8.40625 26.40625L8.375 26.40625L8.375 26.4375C7.664063 27.214844 6.421875 27.234375 5.59375 26.40625L5.59375 26.375L5.5625 26.375C4.785156 25.664063 4.765625 24.421875 5.59375 23.59375C5.972656 23.214844 13.3125 15.8125 16.90625 12.21875L17.3125 11.8125L17.15625 11.25C17.074219 10.925781 17 10.367188 17 10C17 7.246094 19.246094 5 22 5 Z M 5.5625 5.25L7.90625 6.6875L7.90625 7.6875L7.6875 7.90625L6.6875 7.90625L5.25 5.5625 Z M 20.1875 17.40625L26.40625 23.59375L26.40625 23.625L26.4375 23.625C27.214844 24.335938 27.234375 25.578125 26.40625 26.40625L26.375 26.40625L26.375 26.4375C25.664063 27.214844 24.421875 27.234375 23.59375 26.40625L17.40625 20.1875Z" fill="#FF9500" />
</svg>